<?xml version="1.0" standalone="no"?>
<!DOCTYPE svg PUBLIC "-//W3C//DTD SVG 20010904//EN"
 "http://www.w3.org/TR/2001/REC-SVG-20010904/DTD/svg10.dtd">
<svg version="1.0" xmlns="http://www.w3.org/2000/svg"
 width="700.000000pt" height="700.000000pt" viewBox="0 0 700.000000 700.000000"
 preserveAspectRatio="xMidYMid meet">
<metadata>
Created by potrace 1.11, written by Peter Selinger 2001-2013
</metadata>
<g transform="translate(0.000000,700.000000) scale(0.100000,-0.100000)"
fill="#000000" stroke="none">
<path d="M1938 4528 c-30 -47 -1102 -1754 -1120 -1784 l-18 -31 85 -53 c48
-29 88 -51 89 -49 2 2 221 351 486 774 266 424 486 774 490 778 4 4 238 -355
521 -798 460 -723 515 -804 527 -788 7 10 232 367 499 793 267 426 491 780
497 787 8 8 142 -199 515 -793 403 -643 507 -802 517 -792 6 7 263 420 569
916 335 544 553 908 548 913 -5 5 -42 30 -83 55 -59 36 -76 42 -86 32 -6 -7
-222 -355 -479 -773 -258 -418 -471 -763 -474 -767 -3 -4 -233 355 -511 797
-278 443 -507 805 -510 804 -3 0 -232 -362 -509 -805 -278 -442 -508 -801
-511 -797 -4 5 -234 364 -510 798 -276 435 -506 794 -510 798 -4 4 -14 -2 -22
-15z"/>
</g>
</svg>
