<svg width="64" height="64" viewBox="0 0 64 64" version="1.1" xmlns="http://www.w3.org/2000/svg" xmlns:xlink="http://www.w3.org/1999/xlink">
<title>favicon</title>
<desc>Created using Figma</desc>
<g id="Canvas" transform="translate(-5498 307)">
<g id="favicon">
<g id="Line (Stroke)">
<use xlink:href="#path0_fill" transform="matrix(0.531768 -0.84689 0.84689 0.531768 5505.3 -267.817)" fill="#333333"/>
</g>
</g>
</g>
<defs>
<path id="path0_fill" fill-rule="evenodd" d="M 0 0L 0.933332 0L 18.3905 0L 19.8653 0L 19.2339 1.33289L 12.3586 15.8469L 28.3408 15.8469L 29.8273 15.8469L 29.1815 17.1857L 22.2486 31.559L 38.1226 31.4368L 39.0559 31.4296L 39.0703 33.2962L 38.137 33.3034L 20.7639 33.4371L 19.2647 33.4487L 19.916 32.0984L 26.8544 17.7136L 10.8837 17.7136L 9.40884 17.7136L 10.0402 16.3807L 16.9156 1.86666L 0.933332 1.86666L 0 1.86666L 0 0Z"/>
</defs>
</svg>
